<?xml version="1.0" encoding="UTF-8" standalone="no"?>
<!-- Generator: Adobe Illustrator 17.0.0, SVG Export Plug-In . SVG Version: 6.00 Build 0)  -->

<svg
   xmlns:dc="http://purl.org/dc/elements/1.1/"
   xmlns:cc="http://creativecommons.org/ns#"
   xmlns:rdf="http://www.w3.org/1999/02/22-rdf-syntax-ns#"
   xmlns:svg="http://www.w3.org/2000/svg"
   xmlns="http://www.w3.org/2000/svg"
   xmlns:sodipodi="http://sodipodi.sourceforge.net/DTD/sodipodi-0.dtd"
   xmlns:inkscape="http://www.inkscape.org/namespaces/inkscape"
   version="1.1"
   id="Layer_1"
   x="0px"
   y="0px"
   width="161.4512"
   height="175"
   viewBox="0 0 161.4512 175"
   enable-background="new 0 0 250 250"
   xml:space="preserve"
   inkscape:version="0.91 r13725"
   sodipodi:docname="foundation.svg"><metadata
     id="metadata5547"><rdf:RDF><cc:Work
         rdf:about=""><dc:format>image/svg+xml</dc:format><dc:type
           rdf:resource="http://purl.org/dc/dcmitype/StillImage" /><dc:title></dc:title></cc:Work></rdf:RDF></metadata><defs
     id="defs5545" /><sodipodi:namedview
     pagecolor="#ffffff"
     bordercolor="#666666"
     borderopacity="1"
     objecttolerance="10"
     gridtolerance="10"
     guidetolerance="10"
     inkscape:pageopacity="0"
     inkscape:pageshadow="2"
     inkscape:window-width="1920"
     inkscape:window-height="1017"
     id="namedview5543"
     showgrid="false"
     fit-margin-top="0"
     fit-margin-left="0"
     fit-margin-right="0"
     fit-margin-bottom="0"
     inkscape:zoom="0.944"
     inkscape:cx="112.55"
     inkscape:cy="120.671"
     inkscape:window-x="0"
     inkscape:window-y="26"
     inkscape:window-maximized="1"
     inkscape:current-layer="Layer_1" /><path
     enable-background="new    "
     d="M 161.4512,162.4709 C 161.4512,169.39024 125.30906,175 80.725241,175 36.141422,175 0,169.39024 0,162.4709 c 0,-6.92079 42.396599,-12.52911 80.725962,-12.52911 45.625868,0 80.725238,5.6076 80.725238,12.52911 z"
     id="path5401"
     inkscape:connector-curvature="0"
     style="opacity:0.5;fill:#cccccc" /><g
     id="g5403"
     transform="matrix(0.72114097,0,0,0.72114097,-8.9782051,-2.1634229)"><path
       d="m 18.048,186.303 29.291,-38.109 c 14.488,13.543 34.33,20.787 54.487,20.787 22.992,0 34.33,-11.339 34.33,-24.252 0,-14.173 -11.023,-24.252 -32.755,-24.252 -16.693,0 -29.921,4.725 -41.574,15.748 l -37.479,-9.134 0,-124.091 152.438,0 0,47.243 -98.267,0 0,40.629 c 10.079,-9.764 26.456,-16.693 45.038,-16.693 35.905,0 67.715,25.826 67.715,68.345 0,45.354 -34.33,74.329 -88.817,74.329 -37.164,0 -65.195,-11.653 -84.407,-30.55 z"
       id="path5405"
       inkscape:connector-curvature="0"
       style="fill:#028cb9" /></g><g
     id="g5407"
     transform="matrix(0.72114097,0,0,0.72114097,-8.9782051,-2.1634229)"
     style="opacity:0.05"><g
       id="g5409"><g
         id="g5411"><path
           d="m 219.827,180.35 c -1.866,0 -3.876,-0.861 -5.311,-7.464 -1.436,-6.603 -3.588,-13.349 -3.588,-13.349 2.297,0 3.588,-1.005 3.588,-1.005 -1.579,-0.718 -5.024,-3.158 -7.32,-6.172 -2.296,-3.014 -8.182,-7.895 -8.182,-7.895 0,0 0,-3.157 0,-9.76 0,-6.603 4.235,-11.77 4.235,-11.77 -2.87,0 -4.235,2.583 -4.235,2.583 0,0 0,-0.143 0,-13.923 0,-13.78 6.961,-19.951 6.961,-19.951 -2.153,-0.143 -3.588,0.861 -3.588,0.861 1.005,-10.191 4.127,-13.206 4.127,-13.206 -11.483,-3.014 -17.889,3.732 -17.889,3.732 -1.292,-6.172 3.759,-9.762 3.759,-9.762 -5.885,-1.292 -10.752,0.431 -10.752,0.431 0,-9.043 3.595,-12.059 3.595,-12.059 -17.942,0 -28.13,13.491 -28.13,13.491 -0.717,-5.742 0.863,-10.77 0.863,-10.77 -17.368,7.32 -21.96,23.532 -21.96,23.532 -1.148,-2.727 -1.291,-8.918 -1.291,-8.918 0,0 -7.177,12.022 -8.469,20.346 -1.292,8.326 1.148,32.225 1.148,32.225 0,0 -1.148,-1.435 -3.588,-1.722 0,0 2.584,2.871 2.584,9.33 0,0 -1.005,-0.861 -2.728,-0.431 0,0 2.727,2.44 3.014,6.603 0,0 -3.158,2.153 -4.88,4.306 0,0 -2.728,0.143 -4.163,0.574 0,0 2.297,1.292 2.728,2.44 0,0 -6.746,6.89 -10.191,12.488 0,0 3.014,-1.866 5.167,-1.292 0,0 -4.737,5.741 -6.316,15.215 0,0 2.296,-1.148 3.301,-0.574 0,0 -2.871,6.028 -3.014,12.344 l -3.158,1.866 2.44,1.722 c 0,0 -1.866,7.751 -2.297,12.201 0,0 1.435,-1.435 2.584,-1.866 0,0 1.579,3.732 3.732,6.603 2.153,2.871 7.034,5.311 9.904,5.311 l 5.396,-0.211 c -0.669,2.888 -1.99,5.336 -4.772,5.465 l -0.309,0.495 c -0.058,-0.004 -0.116,-0.007 -0.172,-0.008 -0.055,0.843 -1.757,0.995 -2.225,1.579 -1.423,1.775 -2.507,4.213 -3.23,6.387 -0.529,1.593 -0.279,1.593 -0.646,3.23 -0.12,0.536 -0.676,1.108 -0.861,1.651 1.55,-0.521 5.845,-0.868 8.108,-1.035 l 0.038,2.003 c 0,0 0.373,0.347 0.991,0.598 0.021,-0.004 0.042,-0.01 0.068,-0.008 0.21,0.017 0.413,0.048 0.611,0.097 3.395,-0.304 5.759,0.269 9.694,-0.058 0.766,-0.091 1.484,-0.199 2.154,-0.58 0.191,-0.569 0.216,-0.604 0.306,-1.34 0.019,-0.131 0.019,-0.266 0.051,-0.426 0.062,-0.011 0.122,-0.019 0.182,-0.028 0.023,-0.009 0.06,-0.016 0.14,-0.019 0.017,-0.005 0.031,-0.013 0.05,-0.015 0.062,-0.005 0.124,-0.011 0.187,-0.016 0.043,-0.016 0.084,-0.021 0.121,-0.011 0.712,-0.064 1.856,-0.124 2.568,-0.162 2.315,-0.004 5.36,0.263 5.36,0.263 0.188,-2.595 0.377,-6.621 4.575,-18.355 l 1.041,-0.645 c 0,0 12.895,4.544 24.861,-0.184 0.947,2.331 4.011,10.164 4.492,15.102 0.412,0.579 0.366,1.313 0.38,2.091 0.012,0.659 0.067,1.317 0.085,1.974 0.43,-0.058 1.984,-0.249 3.945,-0.246 0.712,0.039 1.855,0.099 2.568,0.162 0.037,-0.01 0.078,-0.005 0.121,0.011 0.062,0.005 0.124,0.01 0.187,0.016 0.019,0.002 0.033,0.01 0.05,0.015 0.081,0.003 0.117,0.01 0.14,0.019 0.06,0.009 0.12,0.018 0.182,0.028 0.032,0.16 0.032,0.294 0.051,0.426 0.09,0.735 0.115,0.77 0.306,1.34 0.061,0.035 0.124,0.065 0.186,0.096 2.143,-0.272 4.314,-0.322 6.47,-0.219 1.696,0.08 3.362,0.399 5.031,0.702 0,0.016 0.002,0.032 0.002,0.048 0.168,0.018 0.333,0.03 0.497,0.041 0.896,0.16 1.794,0.309 2.697,0.407 0.017,-1.13 0.011,-2.119 -0.013,-2.987 1.798,0.086 4.4,0.444 5.492,0.603 0.433,0.104 0.784,0.168 1.154,0.247 0.05,0.015 0.103,0.03 0.148,0.045 -0.002,-0.004 -0.004,-0.009 -0.005,-0.013 0.37,0.083 0.77,0.188 1.297,0.372 -0.08,-0.971 -0.073,-0.951 -0.201,-2.168 -0.099,-0.942 -0.774,-3.802 -2.037,-4.982 0,0 1.376,0.595 1.796,0.832 -1.357,-1.838 -2.016,-4.466 -6.279,-6.278 0,0 0.778,-0.367 1.49,-0.46 -0.744,-0.458 -1.312,-0.639 -2.065,-0.584 0.256,-0.727 1.382,-2.559 2.326,-2.795 0,0 -0.58,-0.403 -1.528,-0.091 -0.352,0.185 -0.694,0.383 -1.027,0.617 -0.126,0.089 -0.309,-0.003 -0.346,-0.141 -0.298,-1.102 -0.492,-2.222 -0.668,-3.347 8.59,-0.311 9.794,-4.718 9.794,-4.718 0.718,0.574 0.717,1.866 0.717,1.866 3.732,-4.88 3.302,-9.761 3.302,-9.761 0.861,0.143 1.579,0.718 1.579,0.718 0.431,-7.464 -1.866,-20.239 -1.866,-20.239 1.148,0.574 1.866,-0.143 1.866,-0.143 -1.292,-0.574 -1.435,-2.01 -1.435,-2.01 1.865,0.145 2.152,-1.578 2.152,-1.578 z"
           id="path5413"
           inkscape:connector-curvature="0" /></g><path
         d="m 137.709,234.506 c 0,0 0.336,-3.63 -0.847,-6.25 0,0 2.242,0.152 2.619,6.073 0,0 -1.57,0.183 -1.772,0.177 z"
         id="path5415"
         inkscape:connector-curvature="0" /><path
         d="m 126.455,222.264 0.014,-0.111 c 0.008,0.054 0.007,0.097 -0.014,0.111 z"
         id="path5417"
         inkscape:connector-curvature="0" /><path
         d="m 128.554,234.225 c -0.013,-0.003 -0.02,-0.005 -0.02,-0.005 0,0 0.009,-0.025 0.026,-0.068 l -0.006,0.073 z"
         id="path5419"
         inkscape:connector-curvature="0" /><path
         d="m 157.098,75.132 c -0.717,-5.742 0.863,-10.77 0.863,-10.77 C 140.593,71.682 136,87.894 136,87.894 c -1.148,-2.727 -1.291,-8.918 -1.291,-8.918 0,0 -7.177,12.022 -8.469,20.346 -1.292,8.326 1.148,32.225 1.148,32.225 0,0 -1.148,-1.435 -3.588,-1.722 0,0 2.584,2.871 2.584,9.33 0,0 -1.005,-0.861 -2.728,-0.431 0,0 2.727,2.44 3.014,6.603 0,0 -3.158,2.153 -4.88,4.306 0,0 -2.728,0.143 -4.163,0.574 0,0 2.297,1.292 2.728,2.44 0,0 -6.746,6.89 -10.191,12.488 0,0 3.014,-1.866 5.167,-1.292 0,0 -4.737,5.741 -6.316,15.215 0,0 2.296,-1.148 3.301,-0.574 0,0 -2.871,6.028 -3.014,12.344 l -3.158,1.866 2.44,1.722 c 0,0 -1.866,7.751 -2.297,12.201 0,0 1.435,-1.435 2.584,-1.866 0,0 1.579,3.732 3.732,6.603 2.153,2.871 7.034,5.311 9.904,5.311 l 0.363,-0.05 c -0.16,0.99 -0.34,1.976 -0.603,2.947 -0.037,0.137 -0.22,0.23 -0.346,0.141 -0.333,-0.235 -0.675,-0.433 -1.027,-0.617 -0.948,-0.312 -1.528,0.091 -1.528,0.091 0.945,0.236 2.07,2.068 2.326,2.795 -0.753,-0.055 -1.321,0.126 -2.065,0.584 0.712,0.092 1.49,0.46 1.49,0.46 -4.262,1.812 -4.922,4.44 -6.279,6.278 0.42,-0.237 1.796,-0.832 1.796,-0.832 -1.263,1.18 -1.938,4.04 -2.037,4.982 -0.128,1.217 -0.121,1.197 -0.201,2.168 1.13,-0.393 1.679,-0.431 2.594,-0.651 1.413,-0.206 5.363,-0.575 6.814,-0.424 l -0.229,2.963 c 0,0 0.029,0 0.071,0 0.745,-0.973 1.352,-0.358 2.016,-0.429 0.01,-0.769 0.05,-1.624 0.113,-2.39 -0.045,-1.31 0.118,-2.545 0.386,-3.875 0.009,-0.045 0.02,-0.113 0.029,-0.158 0.527,-1.815 1.444,-2.859 2.039,-3.494 0.198,-0.211 0.369,-0.466 0.516,-0.722 0.355,-0.473 0.725,-1.092 1.01,-1.869 0.59,-1.61 0.337,-5.149 -0.849,-8.601 1.251,1.799 2.389,3.377 2.929,3.917 l -0.036,-4.396 c 0,0 2.296,2.295 4.352,4.029 0.99,0.864 2.21,1.897 3.077,2.344 0.063,0.04 0.119,0.161 0.188,0.161 l 0,0 c 0.009,0 0.017,-0.033 0.026,-0.028 1.164,0.653 2.362,1.217 3.483,1.943 0.12,0.077 0.243,0.138 0.36,0.219 0.519,0.357 1.432,0.766 2.253,1.199 l 0.776,9.173 c 0.7,-9.635 6.19,-18.858 6.19,-18.858 l -0.201,-0.06 c -1.699,-0.525 -14.129,-4.825 -21.473,-20.18 -0.484,-1.011 2.727,1.148 2.727,1.148 -3.014,-7.32 -4.163,-19.091 -4.163,-19.091 1.005,0.861 2.01,1.005 2.01,1.005 -2.153,-6.029 -3.014,-13.493 -3.014,-20.239 -0.574,-36.315 12.847,-44.64 12.847,-44.64 -2.296,-0.861 -4.737,-0.789 -4.737,-0.789 2.656,-6.387 11.483,-15.287 11.483,-15.287 -2.368,0.144 -11.627,2.655 -11.627,2.655 7.679,-20.024 15.431,-25.334 15.431,-25.334 -0.574,4.808 1.292,9.904 1.292,9.904 16.651,-20.598 30.028,-19.637 30.028,-19.637 0.992,-2.066 2.119,-3.475 2.119,-3.475 -17.939,-0.004 -28.128,13.487 -28.128,13.487 z"
         id="path5421"
         inkscape:connector-curvature="0" /><path
         d="m 204.163,234.393 c 0,0 -0.162,-5.204 -1.346,-7.823 0,0 3.086,1.902 3.069,7.912 0,0 -1.521,-0.084 -1.723,-0.089 z"
         id="path5423"
         inkscape:connector-curvature="0" /><path
         d="m 123.869,207.63 c 2.033,-19.91 2.586,-58.859 2.586,-58.859 -4.414,8.72 -7.966,24.545 -7.966,24.545 l 0.861,3.445 -1.938,-0.861 c -3.114,10.809 -1.007,25.278 -0.309,29.354 1.981,1.568 4.341,2.097 6.766,2.376 z"
         id="path5425"
         inkscape:connector-curvature="0" /><path
         d="m 119.705,207.2 c 0.631,3.187 1.286,6.255 2.013,9.421 0.538,0.081 1.144,0.04 1.144,0.04 0.494,-1.925 0.576,-4.905 0.96,-8.569 -1.415,-0.166 -2.804,-0.418 -4.117,-0.892 z"
         id="path5427"
         inkscape:connector-curvature="0" /><path
         d="m 187.163,224.356 c -0.116,0.034 -0.204,-0.018 -0.251,-0.097 -0.223,0.044 -0.394,0.084 -0.509,0.114 l 0,0 c 2.961,-2.155 3.233,-4.434 3.233,-4.434 -1.964,0.886 -4.05,1.217 -5.064,1.333 6.845,-5.933 7.982,-16.95 7.982,-16.95 -2.804,3.442 -6.782,6.35 -9.857,8.302 l 0.007,-0.013 c 0,0 -2.06,1.152 -3.964,2.049 -0.084,-0.013 -0.167,0.01 -0.23,0.107 -0.978,0.453 -1.89,0.823 -2.427,0.912 0,0 1.585,2.927 2.247,4.506 l -0.13,0.105 c 0,0 2.294,5.421 3.128,10.672 0.088,0.887 0.156,1.665 0.204,2.259 0.04,0.768 0.095,1.298 0.095,1.298 3.032,-0.449 7.316,-0.012 7.316,-0.012 -0.021,0.494 0.251,1.68 0.301,1.895 1.44,-0.194 2.893,-0.279 4.346,-0.291 -0.019,-5.091 -0.243,-13.548 -6.427,-11.755 z"
         id="path5429"
         inkscape:connector-curvature="0" /><path
         d="m 123.71,209.166 c -4.756,-0.804 -9.071,-6.27 -9.071,-6.27 3.467,3.687 7.784,4.181 7.784,4.181 0.57,-4.211 -2.91,-13.848 -2.91,-13.848 2.577,3.21 3.987,6.923 4.758,9.961 l -0.561,5.976 z"
         id="path5431"
         inkscape:connector-curvature="0" /><path
         d="m 134.502,201.71 c 0,0 3.741,6.594 7.024,9.447 3.543,3.079 6.836,7.428 8.236,10.066 0,0 1.776,-4.126 2.745,-5.562 0,0 -10.496,-3.078 -18.005,-13.951 z"
         id="path5433"
         inkscape:connector-curvature="0" /><path
         d="m 183.331,214.571 c 0.52,-0.732 1.116,-1.412 1.684,-2.107 0.931,-1.14 1.995,-2.246 2.776,-3.487 -1.349,1.01 -2.851,1.884 -4.387,2.808 -4.457,3.02 -7.563,3.876 -7.563,3.876 0.969,1.436 2.745,5.562 2.745,5.562 0.847,-1.596 2.39,-3.82 4.26,-6.009 0.157,-0.219 0.332,-0.428 0.485,-0.643 z"
         id="path5435"
         inkscape:connector-curvature="0" /><path
         d="m 133.083,103.517 c -0.408,0.029 -1.714,0.063 -1.714,0.063 -11.835,0.826 -20.534,-8.345 -20.534,-8.345 0,0 -0.778,7.159 4.363,13.432 5.143,6.273 15.563,7.347 15.563,7.347 0.339,1.467 -0.395,4.738 -0.395,4.738 0,0 3.047,-3.371 3.821,-9.757 0.544,-4.476 -0.851,-7.496 -1.104,-7.478"
         id="path5437"
         inkscape:connector-curvature="0" /><path
         d="m 133.083,103.517 c -0.392,0.022 -1.714,0.063 -1.714,0.063 -11.835,0.826 -20.534,-8.345 -20.534,-8.345 0,0 5.407,15.646 23.463,14.41 0,0 0.499,-2.894 -1.215,-6.128"
         id="path5439"
         inkscape:connector-curvature="0" /><path
         d="m 192.171,103.517 c 0.408,0.029 1.714,0.063 1.714,0.063 11.835,0.826 20.534,-8.345 20.534,-8.345 0,0 0.778,7.159 -4.363,13.432 -5.143,6.273 -15.563,7.347 -15.563,7.347 -0.339,1.467 0.395,4.738 0.395,4.738 0,0 -3.047,-3.371 -3.821,-9.757 -0.544,-4.476 0.851,-7.496 1.104,-7.478"
         id="path5441"
         inkscape:connector-curvature="0" /><path
         d="m 192.171,103.517 c 0.392,0.022 1.714,0.063 1.714,0.063 11.835,0.826 20.534,-8.345 20.534,-8.345 0,0 -5.407,15.646 -23.463,14.41 0,0 -0.499,-2.894 1.215,-6.128"
         id="path5443"
         inkscape:connector-curvature="0" /><path
         d="m 127,156.522 c 0,0 -9,30.574 0,50.167 l 0,-50.167 z"
         id="path5445"
         inkscape:connector-curvature="0" /><path
         d="m 211.609,204.885 c -4.199,3.204 -8.567,3.407 -8.567,3.407 -0.195,-4.186 4.381,-13.337 4.381,-13.337 -1.041,0.615 -1.878,1.358 -2.566,2.174 l -0.03,-3.071 3.301,-2.727 -2.655,-2.153 3.373,-13.564 -3.23,2.153 c 0,0 -1.004,-19.305 -0.287,-27.631 0,0 -4.091,-4.091 -6.101,-5.742 0,0 0.38,5.944 0.813,15.442 1.833,7.619 4.681,23.385 1.139,37.252 0.041,2.811 0.071,5.665 0.088,8.547 0,0 1.765,6.133 2.339,10.439 0,0 0.574,0.161 1.435,0.018 l -0.065,-6.595 c 4.435,-1.34 6.632,-4.612 6.632,-4.612 z"
         id="path5447"
         inkscape:connector-curvature="0" /><ellipse
         cx="176.478"
         cy="145.68401"
         rx="4.665"
         ry="5.9039998"
         id="ellipse5449" /><ellipse
         cx="176.55"
         cy="144.10699"
         rx="4.5929999"
         ry="5.8130002"
         id="ellipse5451" /><path
         d="m 175.33,141.109 c -0.037,0.143 -0.062,0.291 -0.062,0.449 0,0.819 0.534,1.482 1.192,1.482 0.585,0 1.069,-0.524 1.17,-1.215 0.375,0.492 0.606,1.155 0.606,1.886 0,1.516 -0.988,2.745 -2.207,2.745 -1.219,0 -2.207,-1.229 -2.207,-2.745 0.001,-1.211 0.632,-2.237 1.508,-2.602 z"
         id="path5453"
         inkscape:connector-curvature="0" /><ellipse
         cx="154.086"
         cy="145.68401"
         rx="4.665"
         ry="5.9039998"
         id="ellipse5455" /><ellipse
         cx="154.158"
         cy="144.10699"
         rx="4.5929999"
         ry="5.8130002"
         id="ellipse5457" /><path
         d="m 153.799,141.109 c -0.037,0.143 -0.062,0.291 -0.062,0.449 0,0.819 0.534,1.482 1.192,1.482 0.585,0 1.069,-0.524 1.17,-1.215 0.375,0.492 0.606,1.155 0.606,1.886 0,1.516 -0.988,2.745 -2.207,2.745 -1.219,0 -2.207,-1.229 -2.207,-2.745 0.001,-1.211 0.633,-2.237 1.508,-2.602 z"
         id="path5459"
         inkscape:connector-curvature="0" /><path
         d="m 192.258,138.594 c -2.08,-0.304 -5.711,-0.649 -10.069,-0.426 -5.672,0.292 -10.531,1.079 -13.434,1.549 -0.867,0.14 -1.548,0.251 -2.067,0.32 l -0.567,0.077 c -0.637,0.088 -1.054,0.143 -1.41,0.161 -0.356,-0.018 -0.773,-0.073 -1.41,-0.161 l -0.567,-0.077 c -0.519,-0.069 -1.2,-0.18 -2.067,-0.32 -2.903,-0.47 -7.762,-1.257 -13.434,-1.549 -4.358,-0.222 -7.989,0.122 -10.069,0.426 0,0 -2.22,0.283 -4.119,1.086 l 0.362,2.413 c 0,0 2.006,-0.478 3.966,-0.739 0.364,3.403 1.073,7.776 1.073,7.776 l 0.011,0.135 c 0.054,0.22 0.104,0.434 0.158,0.668 0.404,1.72 0.804,2.73 2.417,3.336 1.584,0.598 5.331,1.151 9.11,1.346 1.405,0.073 3,-0.014 4.613,-0.249 2.392,-0.349 4.556,-0.993 5.383,-1.605 1.203,-0.889 1.847,-3.126 2.273,-4.606 l 0.127,-0.437 c 0.151,-0.505 0.281,-1.035 0.408,-1.549 0.182,-0.738 0.369,-1.501 0.529,-1.764 0.029,-0.046 0.164,-0.205 0.69,-0.282 0.163,-0.024 0.346,-0.036 0.547,-0.039 0.201,0.003 0.384,0.015 0.547,0.039 0.526,0.077 0.661,0.236 0.69,0.282 0.16,0.263 0.348,1.026 0.529,1.764 0.127,0.514 0.257,1.044 0.408,1.549 l 0.127,0.437 c 0.426,1.48 1.069,3.717 2.272,4.606 0.827,0.611 2.99,1.255 5.383,1.605 1.613,0.235 3.208,0.321 4.613,0.249 3.779,-0.195 7.526,-0.748 9.11,-1.346 1.612,-0.606 2.013,-1.617 2.417,-3.336 0.054,-0.233 0.104,-0.447 0.158,-0.668 l 0.011,-0.135 c 0,0 0.709,-4.373 1.073,-7.776 1.96,0.262 3.966,0.739 3.966,0.739 l 0.362,-2.413 c -1.9,-0.804 -4.12,-1.086 -4.12,-1.086 z m -31.289,5.24 -0.005,0.04 c -0.095,0.782 -0.609,4.749 -1.445,6.1 -0.81,1.305 -1.097,1.631 -3.615,2.057 -0.108,0.018 -0.221,0.035 -0.338,0.052 -2.717,0.397 -7.678,0.466 -10.453,-0.066 l -0.193,-0.037 c -2.832,-0.548 -3.826,-0.782 -4.119,-1.663 -0.396,-1.191 -1.155,-6.694 -1.211,-7.874 -0.043,-0.896 0.799,-1.305 1.028,-1.366 0.143,-0.038 0.373,-0.08 0.685,-0.126 1.988,-0.291 6.336,-0.576 8.387,-0.486 2.598,0.117 8.938,1.012 10.367,1.652 1.062,0.476 1.013,0.89 0.912,1.717 z m 27.653,6.482 c -0.293,0.881 -1.287,1.115 -4.119,1.663 l -0.193,0.037 c -2.775,0.533 -7.736,0.463 -10.453,0.066 -0.117,-0.017 -0.23,-0.034 -0.338,-0.052 -2.519,-0.426 -2.805,-0.752 -3.615,-2.057 -0.836,-1.351 -1.351,-5.318 -1.445,-6.1 l -0.005,-0.04 c -0.101,-0.827 -0.15,-1.241 0.912,-1.716 1.429,-0.641 7.769,-1.535 10.367,-1.652 2.051,-0.09 6.399,0.195 8.387,0.486 0.312,0.046 0.542,0.088 0.685,0.126 0.229,0.061 1.071,0.47 1.028,1.366 -0.056,1.18 -0.815,6.682 -1.211,7.873 z"
         id="path5461"
         inkscape:connector-curvature="0" /><path
         d="m 155.526,132.483 c 0,0 -5.189,-2.475 -8.159,2.12 0,0 -0.307,-4.569 3.884,-5.08 4.191,-0.511 4.275,2.96 4.275,2.96 z"
         id="path5463"
         inkscape:connector-curvature="0" /><path
         d="m 153.58,125.769 c 0,0 -4.81,-2.27 -7.002,2.093 0,0 -0.716,-3.812 2.717,-4.732 3.433,-0.921 4.285,2.639 4.285,2.639 z"
         id="path5465"
         inkscape:connector-curvature="0" /><path
         d="m 174.113,135.284 c 0,0 4.03,-1.922 6.336,1.647 0,0 0.238,-3.549 -3.016,-3.946 -3.255,-0.396 -3.32,2.299 -3.32,2.299 z"
         id="path5467"
         inkscape:connector-curvature="0" /><path
         d="m 176.978,128.929 c 0,0 4.078,-0.66 4.776,3.067 0,0 1.354,-2.691 -1.01,-4.115 -2.364,-1.426 -3.766,1.048 -3.766,1.048 z"
         id="path5469"
         inkscape:connector-curvature="0" /><path
         d="m 155.165,168.682 c 0,0 2.847,-1.913 4.528,-2.177 0,0 0.367,3.611 2.037,5.39 0,0 3.604,-3.249 7.168,-3.48 0,0 0.92,1.98 2.414,2.714 l -0.008,0.023 c 0.539,0.336 1.199,0.677 1.839,0.819 0,0 2.045,-1.238 2.638,-3.499 0,0 0.197,4.773 -2.799,7.374 0,0 -2.285,-1.115 -3.931,-2.9 -0.494,-0.482 -1.008,-1.041 -1.258,-1.497 0,0 -5.286,3.739 -5.479,5.872 0,0 -3.815,-3.72 -5.117,-6.586 0,0 -2.546,0.804 -3.253,1.322 0,0 -2.047,-3.347 -2.462,-6.368 0,0 2.461,2.351 3.683,2.993 z"
         id="path5471"
         inkscape:connector-curvature="0" /></g><path
       d="m 157.697,162.091 c 0,0 3.04,-1.18 3.629,-2.27 0,0 7.828,0.564 12.864,-3.204 0.001,0 -5.145,12.504 -16.493,5.474 z"
       id="path5473"
       inkscape:connector-curvature="0" /></g><g
     id="g5475"
     transform="matrix(0.72114097,0,0,0.72114097,-8.9782051,-2.1634229)"><g
       id="g5477"><g
         id="g5479"><path
           d="m 222.745,179.378 c -1.866,0 -3.876,-0.861 -5.311,-7.464 -1.436,-6.603 -3.588,-13.349 -3.588,-13.349 2.297,0 3.588,-1.005 3.588,-1.005 -1.579,-0.718 -5.024,-3.158 -7.32,-6.172 -2.296,-3.014 -8.182,-7.895 -8.182,-7.895 0,0 0,-3.157 0,-9.76 0,-6.603 4.235,-11.77 4.235,-11.77 -2.87,0 -4.235,2.583 -4.235,2.583 0,0 0,-0.143 0,-13.923 0,-13.78 6.961,-19.951 6.961,-19.951 -2.153,-0.143 -3.588,0.861 -3.588,0.861 1.005,-10.191 4.127,-13.206 4.127,-13.206 -11.483,-3.014 -17.889,3.732 -17.889,3.732 -1.292,-6.172 3.759,-9.762 3.759,-9.762 -5.885,-1.292 -10.752,0.431 -10.752,0.431 0,-9.043 3.595,-12.059 3.595,-12.059 -17.942,0 -28.13,13.491 -28.13,13.491 -0.717,-5.742 0.863,-10.77 0.863,-10.77 -17.368,7.32 -21.96,23.532 -21.96,23.532 -1.148,-2.727 -1.291,-8.918 -1.291,-8.918 0,0 -7.177,12.022 -8.469,20.346 -1.292,8.326 1.148,32.225 1.148,32.225 0,0 -1.148,-1.435 -3.588,-1.722 0,0 2.584,2.871 2.584,9.33 0,0 -1.005,-0.861 -2.728,-0.431 0,0 2.727,2.44 3.014,6.603 0,0 -3.158,2.153 -4.88,4.306 0,0 -2.728,0.143 -4.163,0.574 0,0 2.297,1.292 2.728,2.44 0,0 -6.746,6.89 -10.191,12.488 0,0 3.014,-1.866 5.167,-1.292 0,0 -4.737,5.741 -6.316,15.215 0,0 2.296,-1.148 3.301,-0.574 0,0 -2.871,6.028 -3.014,12.344 l -3.158,1.866 2.44,1.722 c 0,0 -1.866,7.751 -2.297,12.201 0,0 1.435,-1.435 2.584,-1.866 0,0 1.579,3.732 3.732,6.603 2.153,2.871 7.034,5.311 9.904,5.311 l 5.396,-0.211 c -0.669,2.888 -1.99,5.336 -4.772,5.465 l -0.309,0.495 c -0.058,-0.004 -0.116,-0.007 -0.172,-0.008 -0.055,0.843 -1.757,0.995 -2.225,1.579 -1.423,1.775 -2.507,4.213 -3.23,6.387 -0.529,1.593 -0.279,1.593 -0.646,3.23 -0.12,0.536 -0.676,1.108 -0.861,1.651 1.55,-0.521 5.845,-0.868 8.108,-1.035 l 0.038,2.003 c 0,0 0.373,0.347 0.991,0.598 0.021,-0.004 0.042,-0.01 0.068,-0.008 0.21,0.017 0.413,0.048 0.611,0.097 3.395,-0.304 5.759,0.269 9.694,-0.058 0.766,-0.091 1.484,-0.199 2.154,-0.58 0.191,-0.569 0.216,-0.604 0.306,-1.34 0.019,-0.131 0.019,-0.266 0.051,-0.426 0.062,-0.011 0.122,-0.019 0.182,-0.028 0.023,-0.009 0.06,-0.016 0.14,-0.019 0.017,-0.005 0.031,-0.013 0.05,-0.015 0.062,-0.005 0.124,-0.011 0.187,-0.016 0.043,-0.016 0.084,-0.021 0.121,-0.011 0.712,-0.064 1.856,-0.124 2.568,-0.162 2.315,-0.004 5.36,0.263 5.36,0.263 0.188,-2.595 0.377,-6.621 4.575,-18.355 l 1.041,-0.645 c 0,0 12.895,4.544 24.861,-0.184 0.947,2.331 4.011,10.164 4.492,15.102 0.412,0.579 0.366,1.313 0.38,2.091 0.012,0.659 0.067,1.317 0.085,1.974 0.43,-0.058 1.984,-0.249 3.945,-0.246 0.712,0.039 1.855,0.099 2.568,0.162 0.037,-0.01 0.078,-0.005 0.121,0.011 0.062,0.005 0.124,0.01 0.187,0.016 0.019,0.002 0.033,0.01 0.05,0.015 0.081,0.003 0.117,0.01 0.14,0.019 0.06,0.009 0.12,0.018 0.182,0.028 0.032,0.16 0.032,0.294 0.051,0.426 0.09,0.736 0.115,0.77 0.306,1.34 0.061,0.035 0.124,0.065 0.186,0.096 2.143,-0.272 4.314,-0.322 6.47,-0.219 1.696,0.08 3.362,0.399 5.031,0.702 0,0.016 0.002,0.032 0.002,0.048 0.168,0.018 0.333,0.03 0.497,0.041 0.896,0.16 1.794,0.309 2.697,0.407 0.017,-1.13 0.011,-2.119 -0.013,-2.987 1.798,0.086 4.4,0.444 5.492,0.603 0.433,0.104 0.784,0.168 1.153,0.247 0.05,0.015 0.103,0.03 0.148,0.045 -0.002,-0.004 -0.004,-0.009 -0.005,-0.013 0.371,0.083 0.77,0.188 1.297,0.372 -0.08,-0.971 -0.073,-0.951 -0.201,-2.168 -0.099,-0.942 -0.774,-3.802 -2.037,-4.982 0,0 1.376,0.595 1.796,0.832 -1.357,-1.838 -2.016,-4.466 -6.279,-6.278 0,0 0.778,-0.367 1.49,-0.46 -0.744,-0.458 -1.312,-0.639 -2.065,-0.584 0.256,-0.727 1.382,-2.559 2.326,-2.795 0,0 -0.58,-0.403 -1.528,-0.091 -0.352,0.185 -0.694,0.383 -1.027,0.617 -0.126,0.089 -0.309,-0.003 -0.346,-0.141 -0.298,-1.102 -0.492,-2.222 -0.668,-3.347 8.59,-0.311 9.794,-4.718 9.794,-4.718 0.718,0.574 0.717,1.866 0.717,1.866 3.732,-4.88 3.302,-9.761 3.302,-9.761 0.861,0.143 1.579,0.718 1.579,0.718 0.431,-7.464 -1.866,-20.239 -1.866,-20.239 1.148,0.574 1.866,-0.143 1.866,-0.143 -1.292,-0.574 -1.435,-2.01 -1.435,-2.01 1.866,0.144 2.153,-1.578 2.153,-1.578 z"
           id="path5481"
           inkscape:connector-curvature="0"
           style="fill:#eaf7fe" /></g><path
         d="m 140.627,233.534 c 0,0 0.336,-3.63 -0.847,-6.25 0,0 2.242,0.152 2.619,6.073 0,0 -1.57,0.182 -1.772,0.177 z"
         id="path5483"
         inkscape:connector-curvature="0"
         style="fill:#cdeaf5" /><path
         d="m 129.373,221.291 0.014,-0.111 c 0.008,0.055 0.006,0.097 -0.014,0.111 z"
         id="path5485"
         inkscape:connector-curvature="0"
         style="fill:#cdeaf5" /><path
         d="m 131.472,233.252 c -0.013,-0.003 -0.02,-0.005 -0.02,-0.005 0,0 0.009,-0.025 0.026,-0.068 l -0.006,0.073 z"
         id="path5487"
         inkscape:connector-curvature="0"
         style="fill:#cdeaf5" /><path
         d="m 160.016,74.16 c -0.717,-5.742 0.863,-10.77 0.863,-10.77 -17.368,7.32 -21.961,23.532 -21.961,23.532 -1.148,-2.727 -1.291,-8.918 -1.291,-8.918 0,0 -7.177,12.022 -8.469,20.346 -1.292,8.326 1.148,32.225 1.148,32.225 0,0 -1.148,-1.435 -3.588,-1.722 0,0 2.584,2.871 2.584,9.33 0,0 -1.005,-0.861 -2.728,-0.431 0,0 2.727,2.44 3.014,6.603 0,0 -3.158,2.153 -4.88,4.306 0,0 -2.728,0.143 -4.163,0.574 0,0 2.297,1.292 2.728,2.44 0,0 -6.746,6.89 -10.191,12.488 0,0 3.014,-1.866 5.167,-1.292 0,0 -4.737,5.741 -6.316,15.215 0,0 2.296,-1.148 3.301,-0.574 0,0 -2.871,6.028 -3.014,12.344 l -3.158,1.866 2.44,1.722 c 0,0 -1.866,7.751 -2.297,12.201 0,0 1.435,-1.435 2.584,-1.866 0,0 1.579,3.732 3.732,6.603 2.153,2.871 7.034,5.311 9.904,5.311 l 0.363,-0.05 c -0.16,0.99 -0.34,1.976 -0.603,2.947 -0.037,0.137 -0.22,0.23 -0.346,0.141 -0.333,-0.235 -0.675,-0.433 -1.027,-0.617 -0.948,-0.312 -1.528,0.091 -1.528,0.091 0.945,0.236 2.07,2.068 2.326,2.795 -0.753,-0.055 -1.321,0.126 -2.065,0.584 0.712,0.092 1.49,0.46 1.49,0.46 -4.262,1.812 -4.922,4.44 -6.279,6.278 0.42,-0.237 1.796,-0.832 1.796,-0.832 -1.263,1.18 -1.938,4.04 -2.037,4.982 -0.128,1.217 -0.121,1.197 -0.201,2.168 1.13,-0.393 1.679,-0.431 2.594,-0.651 1.413,-0.206 5.363,-0.589 6.814,-0.438 l -0.229,2.949 c 0,0 0.029,0 0.071,0 0.745,-1 1.352,-0.344 2.016,-0.416 0.01,-0.769 0.05,-1.617 0.113,-2.383 -0.045,-1.31 0.118,-2.542 0.386,-3.871 0.009,-0.045 0.02,-0.111 0.029,-0.156 0.527,-1.815 1.444,-2.858 2.039,-3.493 0.198,-0.211 0.369,-0.466 0.516,-0.722 0.355,-0.473 0.725,-1.092 1.01,-1.869 0.59,-1.61 0.337,-5.149 -0.849,-8.601 1.251,1.799 2.389,3.377 2.929,3.917 l -0.036,-4.396 c 0,0 2.296,2.295 4.352,4.029 0.99,0.864 2.21,1.897 3.077,2.344 0.063,0.04 0.119,0.161 0.188,0.161 l 0,0 c 0.009,0 0.017,-0.033 0.026,-0.028 1.164,0.653 2.362,1.217 3.483,1.943 0.12,0.077 0.243,0.138 0.36,0.219 0.519,0.357 1.432,0.766 2.253,1.199 l 0.776,9.173 c 0.7,-9.635 6.19,-18.858 6.19,-18.858 l -0.201,-0.06 c -1.699,-0.525 -14.129,-4.825 -21.473,-20.18 -0.484,-1.011 2.727,1.148 2.727,1.148 -3.014,-7.32 -4.163,-19.091 -4.163,-19.091 1.005,0.861 2.01,1.005 2.01,1.005 -2.153,-6.029 -3.014,-13.493 -3.014,-20.239 -0.574,-36.315 12.847,-44.64 12.847,-44.64 -2.296,-0.861 -4.737,-0.789 -4.737,-0.789 2.656,-6.387 11.483,-15.287 11.483,-15.287 -2.368,0.144 -11.627,2.655 -11.627,2.655 7.679,-20.024 15.431,-25.334 15.431,-25.334 -0.574,4.808 1.292,9.904 1.292,9.904 16.651,-20.598 30.028,-19.637 30.028,-19.637 0.992,-2.066 2.119,-3.475 2.119,-3.475 -17.94,-0.003 -28.128,13.488 -28.128,13.488 z"
         id="path5489"
         inkscape:connector-curvature="0"
         style="fill:#cdeaf5" /><path
         d="m 207.081,233.42 c 0,0 -0.162,-5.204 -1.346,-7.823 0,0 3.086,1.902 3.069,7.912 0,0 -1.522,-0.083 -1.723,-0.089 z"
         id="path5491"
         inkscape:connector-curvature="0"
         style="fill:#cdeaf5" /><path
         d="m 126.786,206.657 c 2.033,-19.91 2.586,-58.859 2.586,-58.859 -4.414,8.72 -7.966,24.545 -7.966,24.545 l 0.861,3.445 -1.938,-0.861 c -3.114,10.809 -1.007,25.278 -0.309,29.354 1.982,1.569 4.341,2.098 6.766,2.376 z"
         id="path5493"
         inkscape:connector-curvature="0"
         style="fill:#acdbe3" /><path
         d="m 122.623,206.227 c 0.631,3.187 1.286,6.255 2.013,9.421 0.538,0.081 1.144,0.04 1.144,0.04 0.494,-1.925 0.576,-4.905 0.96,-8.569 -1.415,-0.166 -2.804,-0.417 -4.117,-0.892 z"
         id="path5495"
         inkscape:connector-curvature="0"
         style="fill:#acdbe3" /><path
         d="m 190.081,223.384 c -0.116,0.034 -0.204,-0.018 -0.251,-0.097 -0.223,0.044 -0.394,0.084 -0.509,0.114 l 0,0 c 2.961,-2.155 3.233,-4.434 3.233,-4.434 -1.964,0.886 -4.05,1.217 -5.064,1.333 6.845,-5.933 7.982,-16.95 7.982,-16.95 -2.804,3.442 -6.782,6.35 -9.857,8.302 l 0.007,-0.013 c 0,0 -2.06,1.152 -3.964,2.049 -0.084,-0.013 -0.167,0.01 -0.23,0.107 -0.978,0.453 -1.89,0.823 -2.427,0.912 0,0 1.585,2.927 2.247,4.506 l -0.13,0.105 c 0,0 2.294,5.421 3.128,10.672 0.088,0.887 0.156,1.665 0.204,2.259 0.04,0.768 0.095,1.298 0.095,1.298 3.032,-0.449 7.316,-0.012 7.316,-0.012 -0.021,0.494 0.251,1.68 0.301,1.895 1.44,-0.194 2.893,-0.279 4.346,-0.291 -0.019,-5.092 -0.243,-13.548 -6.427,-11.755 z"
         id="path5497"
         inkscape:connector-curvature="0"
         style="fill:#cdeaf5" /><path
         d="m 126.628,208.193 c -4.756,-0.804 -9.071,-6.27 -9.071,-6.27 3.467,3.687 7.784,4.181 7.784,4.181 0.57,-4.211 -2.91,-13.848 -2.91,-13.848 2.577,3.21 3.987,6.923 4.758,9.961 l -0.561,5.976 z"
         id="path5499"
         inkscape:connector-curvature="0"
         style="fill:#85c1ce" /><path
         d="m 137.42,200.738 c 0,0 3.741,6.594 7.024,9.447 3.543,3.079 6.836,7.428 8.236,10.066 0,0 1.776,-4.126 2.745,-5.562 0,-0.001 -10.496,-3.078 -18.005,-13.951 z"
         id="path5501"
         inkscape:connector-curvature="0"
         style="fill:#acdbe3" /><path
         d="m 186.249,213.598 c 0.52,-0.732 1.116,-1.412 1.684,-2.107 0.931,-1.14 1.995,-2.246 2.776,-3.487 -1.349,1.01 -2.851,1.884 -4.387,2.808 -4.457,3.02 -7.563,3.876 -7.563,3.876 0.969,1.436 2.745,5.562 2.745,5.562 0.847,-1.596 2.39,-3.82 4.26,-6.009 0.157,-0.218 0.331,-0.427 0.485,-0.643 z"
         id="path5503"
         inkscape:connector-curvature="0"
         style="fill:#acdbe3" /><path
         d="m 136.001,102.545 c -0.408,0.029 -1.714,0.063 -1.714,0.063 -11.835,0.826 -20.534,-8.345 -20.534,-8.345 0,0 -0.778,7.159 4.363,13.432 5.143,6.273 15.563,7.347 15.563,7.347 0.339,1.467 -0.395,4.738 -0.395,4.738 0,0 3.047,-3.371 3.821,-9.757 0.544,-4.477 -0.852,-7.497 -1.104,-7.478"
         id="path5505"
         inkscape:connector-curvature="0"
         style="fill:#5c5b5d" /><path
         d="m 136.001,102.545 c -0.392,0.022 -1.714,0.063 -1.714,0.063 -11.835,0.826 -20.534,-8.345 -20.534,-8.345 0,0 5.407,15.646 23.463,14.41 -0.001,-0.001 0.499,-2.895 -1.215,-6.128"
         id="path5507"
         inkscape:connector-curvature="0"
         style="fill:#747f83" /><path
         d="m 195.088,102.545 c 0.408,0.029 1.714,0.063 1.714,0.063 11.835,0.826 20.534,-8.345 20.534,-8.345 0,0 0.778,7.159 -4.363,13.432 -5.143,6.273 -15.563,7.347 -15.563,7.347 -0.339,1.467 0.395,4.738 0.395,4.738 0,0 -3.047,-3.371 -3.821,-9.757 -0.544,-4.477 0.852,-7.497 1.104,-7.478"
         id="path5509"
         inkscape:connector-curvature="0"
         style="fill:#5c5b5d" /><path
         d="m 195.088,102.545 c 0.392,0.022 1.714,0.063 1.714,0.063 11.835,0.826 20.534,-8.345 20.534,-8.345 0,0 -5.407,15.646 -23.463,14.41 0,-0.001 -0.499,-2.895 1.215,-6.128"
         id="path5511"
         inkscape:connector-curvature="0"
         style="fill:#747f83" /><path
         d="m 130,155.55 c 0,0 -9,30.574 0,50.167 l 0,-50.167 z"
         id="path5513"
         inkscape:connector-curvature="0"
         style="fill:#cdeaf5" /><path
         d="m 214.527,203.912 c -4.199,3.204 -8.567,3.407 -8.567,3.407 -0.195,-4.186 4.381,-13.337 4.381,-13.337 -1.041,0.615 -1.878,1.358 -2.566,2.174 l -0.03,-3.071 3.301,-2.727 -2.655,-2.153 3.373,-13.564 -3.23,2.153 c 0,0 -1.004,-19.305 -0.287,-27.631 0,0 -4.091,-4.091 -6.101,-5.742 0,0 0.38,5.944 0.813,15.442 1.833,7.619 4.681,23.385 1.139,37.252 0.041,2.811 0.071,5.665 0.087,8.547 0,0 1.765,6.133 2.339,10.439 0,0 0.574,0.161 1.435,0.018 l -0.065,-6.595 c 4.436,-1.34 6.633,-4.612 6.633,-4.612 z"
         id="path5515"
         inkscape:connector-curvature="0"
         style="fill:#cdeaf5" /><ellipse
         cx="179.396"
         cy="144.711"
         rx="4.665"
         ry="5.9039998"
         id="ellipse5517"
         style="fill:#cdeaf5" /><ellipse
         cx="179.468"
         cy="143.134"
         rx="4.5929999"
         ry="5.8130002"
         id="ellipse5519"
         style="fill:#ffffff" /><path
         d="m 178.248,140.137 c -0.037,0.143 -0.062,0.291 -0.062,0.449 0,0.819 0.534,1.482 1.192,1.482 0.585,0 1.069,-0.524 1.17,-1.215 0.375,0.492 0.606,1.155 0.606,1.886 0,1.516 -0.988,2.745 -2.207,2.745 -1.219,0 -2.207,-1.229 -2.207,-2.745 0.001,-1.212 0.632,-2.238 1.508,-2.602 z"
         id="path5521"
         inkscape:connector-curvature="0"
         style="fill:#4f4e51" /><ellipse
         cx="157.004"
         cy="144.711"
         rx="4.665"
         ry="5.9039998"
         id="ellipse5523"
         style="fill:#cdeaf5" /><ellipse
         cx="157.076"
         cy="143.134"
         rx="4.5929999"
         ry="5.8130002"
         id="ellipse5525"
         style="fill:#ffffff" /><path
         d="m 156.717,140.137 c -0.037,0.143 -0.062,0.291 -0.062,0.449 0,0.819 0.534,1.482 1.192,1.482 0.585,0 1.069,-0.524 1.17,-1.215 0.375,0.492 0.606,1.155 0.606,1.886 0,1.516 -0.988,2.745 -2.207,2.745 -1.219,0 -2.207,-1.229 -2.207,-2.745 0.001,-1.212 0.632,-2.238 1.508,-2.602 z"
         id="path5527"
         inkscape:connector-curvature="0"
         style="fill:#4f4e51" /><path
         d="m 195.176,137.621 c -2.08,-0.304 -5.711,-0.649 -10.069,-0.426 -5.672,0.292 -10.531,1.079 -13.434,1.549 -0.867,0.14 -1.548,0.251 -2.067,0.32 l -0.567,0.077 c -0.637,0.088 -1.054,0.143 -1.41,0.161 -0.356,-0.018 -0.773,-0.073 -1.41,-0.161 l -0.567,-0.077 c -0.519,-0.069 -1.2,-0.18 -2.067,-0.32 -2.903,-0.47 -7.762,-1.257 -13.434,-1.549 -4.358,-0.222 -7.989,0.122 -10.069,0.426 0,0 -2.22,0.283 -4.119,1.086 l 0.362,2.413 c 0,0 2.006,-0.478 3.966,-0.739 0.364,3.403 1.073,7.776 1.073,7.776 l 0.011,0.135 c 0.054,0.22 0.104,0.434 0.158,0.668 0.404,1.72 0.804,2.73 2.417,3.336 1.584,0.598 5.331,1.151 9.11,1.346 1.405,0.073 3,-0.014 4.613,-0.249 2.392,-0.349 4.556,-0.993 5.383,-1.605 1.203,-0.889 1.847,-3.126 2.273,-4.606 l 0.127,-0.437 c 0.151,-0.505 0.281,-1.035 0.408,-1.549 0.182,-0.738 0.369,-1.501 0.529,-1.764 0.029,-0.046 0.164,-0.205 0.69,-0.282 0.163,-0.024 0.346,-0.036 0.547,-0.039 0.201,0.003 0.384,0.015 0.547,0.039 0.526,0.077 0.661,0.236 0.69,0.282 0.16,0.263 0.348,1.026 0.529,1.764 0.127,0.514 0.257,1.044 0.408,1.549 l 0.127,0.437 c 0.426,1.48 1.069,3.717 2.272,4.606 0.827,0.611 2.99,1.255 5.383,1.605 1.613,0.235 3.208,0.321 4.613,0.249 3.779,-0.195 7.526,-0.748 9.11,-1.346 1.612,-0.606 2.013,-1.617 2.417,-3.336 0.054,-0.233 0.104,-0.447 0.158,-0.668 l 0.011,-0.135 c 0,0 0.709,-4.373 1.073,-7.776 1.96,0.262 3.966,0.739 3.966,0.739 l 0.362,-2.413 c -1.9,-0.803 -4.12,-1.086 -4.12,-1.086 z m -31.289,5.24 -0.005,0.04 c -0.095,0.782 -0.609,4.749 -1.445,6.1 -0.81,1.305 -1.097,1.631 -3.615,2.057 -0.108,0.018 -0.221,0.035 -0.338,0.052 -2.717,0.397 -7.678,0.466 -10.453,-0.066 l -0.193,-0.037 c -2.832,-0.548 -3.826,-0.782 -4.119,-1.663 -0.396,-1.191 -1.155,-6.694 -1.211,-7.874 -0.043,-0.896 0.799,-1.305 1.028,-1.366 0.143,-0.038 0.373,-0.08 0.685,-0.126 1.988,-0.291 6.336,-0.576 8.387,-0.486 2.598,0.117 8.938,1.012 10.367,1.652 1.062,0.476 1.012,0.89 0.912,1.717 z m 27.653,6.483 c -0.293,0.881 -1.287,1.115 -4.119,1.663 l -0.193,0.037 c -2.775,0.533 -7.736,0.463 -10.453,0.066 -0.117,-0.017 -0.23,-0.034 -0.338,-0.052 -2.518,-0.426 -2.805,-0.752 -3.615,-2.057 -0.836,-1.351 -1.351,-5.318 -1.445,-6.1 l -0.005,-0.04 c -0.1,-0.827 -0.15,-1.241 0.912,-1.716 1.429,-0.64 7.769,-1.535 10.367,-1.652 2.051,-0.09 6.399,0.195 8.387,0.486 0.312,0.046 0.542,0.088 0.685,0.126 0.229,0.061 1.071,0.47 1.028,1.366 -0.056,1.179 -0.816,6.682 -1.211,7.873 z"
         id="path5529"
         inkscape:connector-curvature="0"
         style="fill:#5c5b5d" /><path
         d="m 158.444,131.51 c 0,0 -5.189,-2.475 -8.159,2.12 0,0 -0.307,-4.569 3.884,-5.08 4.19,-0.511 4.275,2.96 4.275,2.96 z"
         id="path5531"
         inkscape:connector-curvature="0"
         style="fill:#a1d4e9" /><path
         d="m 156.497,124.796 c 0,0 -4.81,-2.27 -7.002,2.093 0,0 -0.716,-3.812 2.717,-4.732 3.433,-0.92 4.285,2.639 4.285,2.639 z"
         id="path5533"
         inkscape:connector-curvature="0"
         style="fill:#a1d4e9" /><path
         d="m 177.031,134.312 c 0,0 4.03,-1.922 6.336,1.647 0,0 0.238,-3.549 -3.016,-3.946 -3.255,-0.397 -3.32,2.299 -3.32,2.299 z"
         id="path5535"
         inkscape:connector-curvature="0"
         style="fill:#a1d4e9" /><path
         d="m 179.896,127.956 c 0,0 4.078,-0.66 4.776,3.067 0,0 1.354,-2.691 -1.01,-4.115 -2.365,-1.426 -3.766,1.048 -3.766,1.048 z"
         id="path5537"
         inkscape:connector-curvature="0"
         style="fill:#a1d4e9" /><path
         d="m 158.083,167.709 c 0,0 2.847,-1.913 4.528,-2.177 0,0 0.367,3.611 2.037,5.39 0,0 3.604,-3.249 7.168,-3.48 0,0 0.92,1.98 2.414,2.714 l -0.008,0.023 c 0.539,0.336 1.199,0.677 1.839,0.819 0,0 2.045,-1.238 2.638,-3.499 0,0 0.197,4.773 -2.799,7.374 0,0 -2.285,-1.115 -3.931,-2.9 -0.494,-0.482 -1.008,-1.041 -1.258,-1.497 0,0 -5.286,3.739 -5.479,5.872 0,0 -3.815,-3.72 -5.117,-6.586 0,0 -2.546,0.804 -3.253,1.322 0,0 -2.047,-3.347 -2.462,-6.368 -0.001,0.001 2.461,2.352 3.683,2.993 z"
         id="path5539"
         inkscape:connector-curvature="0"
         style="fill:#b2deef" /></g><path
       d="m 160.615,161.118 c 0,0 3.04,-1.18 3.629,-2.27 0,0 7.828,0.564 12.864,-3.204 0,0.001 -5.145,12.504 -16.493,5.474 z"
       id="path5541"
       inkscape:connector-curvature="0"
       style="fill:#5c5b5d" /></g></svg>