<?xml version="1.0" encoding="UTF-8" standalone="no"?>
<svg
   xmlns:dc="http://purl.org/dc/elements/1.1/"
   xmlns:cc="http://creativecommons.org/ns#"
   xmlns:rdf="http://www.w3.org/1999/02/22-rdf-syntax-ns#"
   xmlns:svg="http://www.w3.org/2000/svg"
   xmlns="http://www.w3.org/2000/svg"
   xmlns:sodipodi="http://sodipodi.sourceforge.net/DTD/sodipodi-0.dtd"
   xmlns:inkscape="http://www.inkscape.org/namespaces/inkscape"
   viewBox="0 0 123.98135 175"
   id="svg6248"
   version="1.1"
   inkscape:version="0.91 r13725"
   sodipodi:docname="html.svg"
   width="123.98135"
   height="175">
  <metadata
     id="metadata6276">
    <rdf:RDF>
      <cc:Work
         rdf:about="">
        <dc:format>image/svg+xml</dc:format>
        <dc:type
           rdf:resource="http://purl.org/dc/dcmitype/StillImage" />
        <dc:title>HTML5 Logo</dc:title>
      </cc:Work>
    </rdf:RDF>
  </metadata>
  <defs
     id="defs6274" />
  <sodipodi:namedview
     pagecolor="#ffffff"
     bordercolor="#666666"
     borderopacity="1"
     objecttolerance="10"
     gridtolerance="10"
     guidetolerance="10"
     inkscape:pageopacity="0"
     inkscape:pageshadow="2"
     inkscape:window-width="1920"
     inkscape:window-height="1017"
     id="namedview6272"
     showgrid="false"
     fit-margin-top="0"
     fit-margin-left="0"
     fit-margin-right="0"
     fit-margin-bottom="0"
     inkscape:zoom="1.3037281"
     inkscape:cx="226.79283"
     inkscape:cy="147.56123"
     inkscape:window-x="0"
     inkscape:window-y="26"
     inkscape:window-maximized="1"
     inkscape:current-layer="svg6248" />
  <title
     id="title6250">HTML5 Logo</title>
  <polygon
     points="255.778,512 107.644,470.877 74.633,100.62 437.367,100.62 404.321,470.819 "
     id="polygon6252"
     transform="matrix(0.34179688,0,0,0.34179688,-25.509327,0)"
     style="fill:#e44d26" />
  <polygon
     points="256,480.523 376.03,447.246 404.27,130.894 256,130.894 "
     id="polygon6254"
     transform="matrix(0.34179688,0,0,0.34179688,-25.509327,0)"
     style="fill:#f16529" />
  <polygon
     points="256,176.305 255.843,176.305 142.132,176.305 143.219,188.488 154.38,313.627 256,313.627 256,268.217 195.91,268.217 191.76,221.716 256,221.716 "
     id="polygon6256"
     transform="matrix(0.34179688,0,0,0.34179688,-25.509327,0)"
     style="fill:#ebebeb" />
  <polygon
     points="177.419,336.333 156.409,336.333 162.771,407.634 255.791,433.457 256,433.399 256,386.153 255.801,386.206 205.227,372.55 201.994,336.333 "
     id="polygon6258"
     transform="matrix(0.34179688,0,0,0.34179688,-25.509327,0)"
     style="fill:#ebebeb" />
  <path
     d="m 11.535302,0 7.887646,0 0,7.79297 7.215331,0 0,-7.79297 7.88799,0 0,23.59902 -7.88765,0 0,-7.90234 -7.215329,0 0,7.90234 -7.887646,0 0,-23.59902 z"
     id="path6260"
     inkscape:connector-curvature="0" />
  <path
     d="m 44.898779,7.82578 -6.94395,0 0,-7.82578 21.7793,0 0,7.82578 -6.94702,0 0,15.77324 -7.88799,0 0,-15.77324 z"
     id="path6262"
     inkscape:connector-curvature="0" />
  <path
     d="m 63.190719,0 8.22466,0 5.05928,8.29199 L 81.528809,0 l 8.22773,0 0,23.59902 -7.85517,0 0,-11.69697 -5.42671,8.39077 -0.1357,0 -5.43046,-8.39077 0,11.69697 -7.71778,0 0,-23.59902 z"
     id="path6264"
     inkscape:connector-curvature="0" />
  <path
     d="m 93.682079,0 7.890041,0 0,15.79854 11.09233,0 0,7.80048 -18.982371,0 0,-23.59902 z"
     id="path6266"
     inkscape:connector-curvature="0" />
  <polygon
     points="255.843,386.191 255.843,433.435 348.937,407.634 349.62,399.962 360.291,280.411 361.399,268.217 349.162,268.217 255.843,268.217 255.843,313.627 311.761,313.627 306.49,372.521 "
     id="polygon6268"
     transform="matrix(0.34179688,0,0,0.34179688,-25.509327,0)"
     style="fill:#ffffff" />
  <polygon
     points="365.385,221.716 365.385,221.716 365.531,221.716 366.442,211.509 368.511,188.488 369.597,176.305 255.843,176.305 255.843,204.509 255.843,221.605 255.843,221.716 "
     id="polygon6270"
     transform="matrix(0.34179688,0,0,0.34179688,-25.509327,0)"
     style="fill:#ffffff" />
</svg>
