<?xml version="1.0" encoding="UTF-8" standalone="no"?>
<!-- Created with Inkscape (http://www.inkscape.org/) -->

<svg
   xmlns:dc="http://purl.org/dc/elements/1.1/"
   xmlns:cc="http://creativecommons.org/ns#"
   xmlns:rdf="http://www.w3.org/1999/02/22-rdf-syntax-ns#"
   xmlns:svg="http://www.w3.org/2000/svg"
   xmlns="http://www.w3.org/2000/svg"
   xmlns:sodipodi="http://sodipodi.sourceforge.net/DTD/sodipodi-0.dtd"
   xmlns:inkscape="http://www.inkscape.org/namespaces/inkscape"
   id="svg7569"
   version="1.1"
   inkscape:version="0.91 r13725"
   width="123.67554"
   height="175"
   viewBox="0 0 123.67554 175"
   sodipodi:docname="javascript.svg">
  <metadata
     id="metadata7575">
    <rdf:RDF>
      <cc:Work
         rdf:about="">
        <dc:format>image/svg+xml</dc:format>
        <dc:type
           rdf:resource="http://purl.org/dc/dcmitype/StillImage" />
        <dc:title></dc:title>
      </cc:Work>
    </rdf:RDF>
  </metadata>
  <defs
     id="defs7573" />
  <sodipodi:namedview
     pagecolor="#ffffff"
     bordercolor="#666666"
     borderopacity="1"
     objecttolerance="10"
     gridtolerance="10"
     guidetolerance="10"
     inkscape:pageopacity="0"
     inkscape:pageshadow="2"
     inkscape:window-width="1920"
     inkscape:window-height="1017"
     id="namedview7571"
     showgrid="false"
     fit-margin-top="0"
     fit-margin-left="0"
     fit-margin-right="0"
     fit-margin-bottom="0"
     inkscape:zoom="5.1637607"
     inkscape:cx="12.746383"
     inkscape:cy="71.462004"
     inkscape:window-x="0"
     inkscape:window-y="26"
     inkscape:window-maximized="1"
     inkscape:current-layer="svg7569" />
  <path
     style="fill:#efbc1f"
     d="m 0.17193546,34.419921 -0.02194,2.153715 c -0.01204,1.184543 2.36726604,28.644403 5.28657704,61.021909 2.919301,32.377515 5.6213485,59.901735 6.0044765,61.165495 l 0.695968,2.2973 23.93016,6.93576 c 13.161593,3.81463 24.576268,6.96726 25.365968,7.00555 0.78969,0.0383 12.41975,-3.08486 25.84457,-6.93975 l 24.408775,-7.00755 0.69197,-2.29529 c 0.38024,-1.26179 3.08173,-28.784 6.00448,-61.161515 2.92275,-32.377506 5.30522,-59.837366 5.29256,-61.021909 l -0.0239,-2.153715 -61.739825,0 -61.73980654,0 z M 31.14354,60.264494 l 31.894915,0 31.89691,0 0.018,0.717905 c 0.0102,0.394848 0.64313,5.025334 1.4059,10.289969 0.76276,5.264633 1.40111,10.541245 1.41786,11.725782 l 0.0299,2.153709 -8.13625,0 -8.13626,0 0,-4.786032 0,-4.786032 -18.66552,0 -18.665525,0 0,8.136254 0,8.136255 27.220555,0 27.22056,0 -0.42875,3.110929 c -0.23603,1.711015 -1.28081,12.330667 -2.32123,23.599127 -1.04041,11.26848 -2.05095,20.64669 -2.24545,20.84118 -0.19449,0.1945 -7.07129,2.28177 -15.28139,4.63846 -8.21013,2.3567 -15.70269,4.25312 -16.64941,4.2137 -0.94675,-0.0394 -8.33088,-1.94701 -16.410111,-4.23962 -8.07923,-2.29261 -14.858794,-4.33751 -15.06603,-4.54474 -0.207237,-0.20724 -0.805453,-4.4377 -1.328123,-9.40057 -0.52267,-4.96286 -0.957993,-10.44217 -0.967182,-12.17447 l -0.01595,-3.1488 7.896948,0.27718 7.896958,0.27919 0.281178,5.86289 0.28317,5.86489 8.919969,2.53061 8.919973,2.5326 1.32812,-0.44669 c 0.72973,-0.24549 4.412,-1.33829 8.18411,-2.42891 l 6.85799,-1.98222 0.51251,-3.57357 c 0.28188,-1.96528 0.78548,-6.48109 1.11673,-10.03471 l 0.60225,-6.46114 -27.003199,0 -27.001194,0 0.562357,-4.54673 c 0.308685,-2.5007 1.301995,-13.053915 2.207558,-23.451566 l 1.647191,-18.90483 z"
     id="path8163"
     inkscape:connector-curvature="0" />
  <path
     style="fill:#e6a626"
     d="M 0.02197546,34.400077 4.545674e-5,36.553791 C -0.01198454,37.738334 2.3653165,65.198195 5.2846225,97.575699 8.2039295,129.95322 10.905976,157.47744 11.289098,158.74119 l 0.697963,2.29929 23.93016,6.93576 c 13.161588,3.81463 24.576284,6.96528 25.365964,7.00356 0.78969,0.0383 12.41975,-3.08285 25.84458,-6.93775 l 24.408765,-7.00954 0.68998,-2.29331 c 0.38024,-1.26178 3.08372,-28.78598 6.00647,-61.163501 2.92275,-32.377504 5.30322,-59.837365 5.29056,-61.021908 l -0.022,-2.153714 -61.739815,0 -61.73981454,0 z m 62.21841954,10.52927 25.46966,0 25.469675,0 -0.49256,2.153715 c -0.27089,1.184542 -2.5708,25.11549 -5.10909,53.180798 -2.53826,28.0653 -4.86687,51.4388 -5.17689,51.94041 l -0.56435,0.91334 -15.251495,4.35329 c -8.38847,2.39472 -17.29752,4.95002 -19.79823,5.67943 l -4.54672,1.32613 0,-7.93086 0,-7.93085 -15.403049,-4.21969 c -8.471239,-2.32024 -15.788426,-4.45635 -16.260544,-4.74814 l -0.857497,-0.53045 -0.953219,-9.0456 c -0.523862,-4.97436 -0.960084,-10.46012 -0.96917,-12.19242 l -0.01596,-3.1508 7.896954,0.27919 7.896952,0.27718 0.28118,5.84694 0.281179,5.84694 7.376472,2.10385 c 4.056902,1.15638 8.130266,2.32277 9.051582,2.59244 l 1.67512,0.49056 0,-12.50949 0,-12.50749 -17.831965,0 -17.831958,0 0.560364,-4.54673 c 0.308682,-2.5007 1.30202,-13.053909 2.207557,-23.451564 l 1.647194,-18.904826 15.6244,0 15.624408,0 0,-7.657651 0,-7.657652 z m -18.186925,30.630605 0,8.136255 0,8.136254 9.093461,0 9.093464,0 0,-8.136254 0,-8.136255 -9.093464,0 -9.093461,0 z"
     id="path8161"
     inkscape:connector-curvature="0" />
  <path
     inkscape:connector-curvature="0"
     id="path8159"
     d="m 47.8219,22.972954 -9.572064,0 0,-3.828826 0,-3.828825 5.743239,0 5.743238,0 0,-7.6576516 0,-7.6576514 3.828826,0 3.828825,0 0,11.486477 0,11.486477 -9.572064,0 z m 27.758995,0 -9.57207,0 0,-3.350222 0,-3.350223 3.35022,0 3.35023,0 0,-0.769433 c 0,-0.42319 -1.5076,-2.230659 -3.35023,-4.016599 l -3.35022,-3.2471637 0,-4.1196568 0,-4.1196565 9.57207,0 9.57206,0 0,3.8288257 0,3.8288257 -4.02813,0 -4.02812,0 4.02812,4.1043596 4.02813,4.104359 0,3.553292 0,3.553292 -9.57206,0 z"
     style="fill:#252122" />
  <path
     style="opacity:1;fill:#ffffff;fill-opacity:1"
     d="M 59.379063,147.70522 C 47.47617,144.61201 30.877555,139.82333 30.38892,139.3416 c -0.819514,-0.80794 -2.983971,-24.54193 -2.237098,-24.53053 1.619796,0.0247 15.233825,0.59434 15.278767,0.63929 0.03481,0.0348 0.191872,2.62033 0.349039,5.74562 0.157167,3.12529 0.354436,5.7447 0.438376,5.82093 0.08394,0.0762 4.140664,1.26855 9.014945,2.64961 l 8.862328,2.51103 2.975949,-0.91953 c 1.636774,-0.50574 5.317555,-1.59313 8.179518,-2.41641 2.86196,-0.82328 5.236114,-1.52503 5.275899,-1.55943 0.155954,-0.13486 1.00364,-7.06107 1.56214,-12.76381 0.323369,-3.30186 0.624268,-6.33018 0.668664,-6.7296 l 0.08072,-0.72621 -27.018756,0 -27.018755,0 0.12079,-0.82304 c 0.478601,-3.26111 2.039387,-19.73748 3.632293,-38.344152 l 0.642432,-7.50422 31.792916,0 31.792916,0 0.131129,1.016701 c 0.07212,0.559185 0.563361,4.099825 1.091646,7.868088 1.132932,8.081224 1.71843,13.054295 1.71843,14.5959 l 0,1.113789 -8.036778,0 -8.036779,0 0,-4.744604 0,-4.744604 -18.883688,0 -18.88369,0 0.05052,8.182021 0.05052,8.182022 27.257266,0.04908 c 16.74034,0.03015 27.257266,0.118935 27.257266,0.230119 0,0.09957 -0.173369,1.558959 -0.385267,3.24309 -0.211896,1.684129 -1.044892,9.990146 -1.851099,18.457816 -1.482179,15.56745 -2.512287,25.34088 -2.689584,25.51817 -0.156162,0.15617 -7.058372,2.25195 -13.955637,4.23748 -8.563019,2.46507 -16.743859,4.5261 -17.877893,4.50407 -0.498776,-0.01 -1.56046,-0.18748 -2.359296,-0.39507 z"
     id="path8199"
     inkscape:connector-curvature="0" />
</svg>
