<?xml version="1.0" encoding="UTF-8" standalone="no"?>
<svg
   xmlns:dc="http://purl.org/dc/elements/1.1/"
   xmlns:cc="http://creativecommons.org/ns#"
   xmlns:rdf="http://www.w3.org/1999/02/22-rdf-syntax-ns#"
   xmlns:svg="http://www.w3.org/2000/svg"
   xmlns="http://www.w3.org/2000/svg"
   xmlns:sodipodi="http://sodipodi.sourceforge.net/DTD/sodipodi-0.dtd"
   xmlns:inkscape="http://www.inkscape.org/namespaces/inkscape"
   height="512px"
   id="Слой_1"
   style="enable-background:new 0 0 512 512;"
   version="1.1"
   viewBox="0 0 512 512"
   width="512px"
   xml:space="preserve"
   inkscape:version="0.91 r13725"
   sodipodi:docname="ivadol_logo.svg"><metadata
     id="metadata13"><rdf:RDF><cc:Work
         rdf:about=""><dc:format>image/svg+xml</dc:format><dc:type
           rdf:resource="http://purl.org/dc/dcmitype/StillImage" /><dc:title></dc:title></cc:Work></rdf:RDF></metadata><defs
     id="defs11" /><sodipodi:namedview
     pagecolor="#ffffff"
     bordercolor="#666666"
     borderopacity="1"
     objecttolerance="10"
     gridtolerance="10"
     guidetolerance="10"
     inkscape:pageopacity="0"
     inkscape:pageshadow="2"
     inkscape:window-width="1920"
     inkscape:window-height="1017"
     id="namedview9"
     showgrid="false"
     inkscape:zoom="0.4609375"
     inkscape:cx="260.33898"
     inkscape:cy="256"
     inkscape:window-x="0"
     inkscape:window-y="26"
     inkscape:window-maximized="1"
     inkscape:current-layer="Слой_1" /><g
     id="g3"><path
       d="M419.303,323.975c7.339-1.568,14.324-5.173,20.02-10.868L506,246.42l-47.536-47.508   c-10.533-10.569-25.51-13.987-38.937-10.326c4.09-6.293,6.471-13.782,6.471-21.83V72.449h-67.209   c-14.912,0-27.928,8.161-34.818,20.243c-1.569-7.339-5.192-14.305-10.868-20L246.416,6.005l-47.508,47.526   c-10.569,10.532-13.996,25.509-10.327,38.936c-6.284-4.089-13.782-6.462-21.83-6.462H72.445v67.191   c0,14.94,8.141,27.937,20.243,34.846c-7.339,1.55-14.324,5.155-20.01,10.868L6,265.58l47.526,47.526   c10.542,10.551,25.51,13.987,38.937,10.308c-4.089,6.293-6.47,13.782-6.47,21.83v94.306h67.209   c14.911,0,27.928-8.142,34.827-20.243c1.56,7.339,5.164,14.324,10.878,20.02l66.668,66.667l47.527-47.507   c10.541-10.551,13.978-25.51,10.308-38.955c6.284,4.089,13.782,6.48,21.83,6.48h94.306v-67.209   C439.547,343.882,431.404,330.866,419.303,323.975z M255.809,391.464c-74.903,0-135.632-60.711-135.632-135.632   c0-74.923,60.729-135.651,135.632-135.651c74.941,0,135.651,60.729,135.651,135.651   C391.46,330.754,330.749,391.464,255.809,391.464z"
       style="fill:#6093ac;fill-opacity:1"
       id="path5" /><path
       d="M255.809,156.465c-54.866,0-99.357,44.482-99.357,99.367c0,54.865,44.492,99.366,99.357,99.366   c54.884,0,99.376-44.501,99.376-99.366C355.185,200.947,310.693,156.465,255.809,156.465z M255.809,301.752   c-25.341,0-45.902-20.561-45.902-45.92c0-25.36,20.561-45.921,45.902-45.921c25.379,0,45.92,20.561,45.92,45.921   C301.729,281.192,281.187,301.752,255.809,301.752z"
       style="fill:#563e31;fill-opacity:1"
       id="path7" /></g></svg>