<?xml version="1.0" encoding="UTF-8" standalone="no"?>
<!-- Created with Inkscape (http://www.inkscape.org/) -->

<svg
   xmlns:dc="http://purl.org/dc/elements/1.1/"
   xmlns:cc="http://creativecommons.org/ns#"
   xmlns:rdf="http://www.w3.org/1999/02/22-rdf-syntax-ns#"
   xmlns:svg="http://www.w3.org/2000/svg"
   xmlns="http://www.w3.org/2000/svg"
   xmlns:sodipodi="http://sodipodi.sourceforge.net/DTD/sodipodi-0.dtd"
   xmlns:inkscape="http://www.inkscape.org/namespaces/inkscape"
   id="svg3459"
   version="1.1"
   inkscape:version="0.91 r13725"
   width="155"
   height="155"
   viewBox="0 0 155 155"
   sodipodi:docname="logo.svg"
   inkscape:export-filename="/home/akarienta/Plocha/ivadol_logo.png"
   inkscape:export-xdpi="150.96774"
   inkscape:export-ydpi="150.96774">
  <metadata
     id="metadata3465">
    <rdf:RDF>
      <cc:Work
         rdf:about="">
        <dc:format>image/svg+xml</dc:format>
        <dc:type
           rdf:resource="http://purl.org/dc/dcmitype/StillImage" />
        <dc:title></dc:title>
      </cc:Work>
    </rdf:RDF>
  </metadata>
  <defs
     id="defs3463" />
  <sodipodi:namedview
     pagecolor="#ffffff"
     bordercolor="#666666"
     borderopacity="1"
     objecttolerance="10"
     gridtolerance="10"
     guidetolerance="10"
     inkscape:pageopacity="0"
     inkscape:pageshadow="2"
     inkscape:window-width="1920"
     inkscape:window-height="1017"
     id="namedview3461"
     showgrid="false"
     showguides="true"
     inkscape:guide-bbox="true"
     fit-margin-top="0"
     fit-margin-left="0"
     fit-margin-right="0"
     fit-margin-bottom="0"
     inkscape:zoom="4.9359476"
     inkscape:cx="58.267825"
     inkscape:cy="74.14435"
     inkscape:window-x="0"
     inkscape:window-y="26"
     inkscape:window-maximized="1"
     inkscape:current-layer="svg3459" />
  <path
     style="fill:#000000"
     d=""
     id="path3475"
     inkscape:connector-curvature="0" />
  <path
     style="fill:#000000"
     d=""
     id="path3473"
     inkscape:connector-curvature="0" />
  <g
     id="g3573"
     transform="translate(-144.04549,-27.41006)">
    <path
       inkscape:connector-curvature="0"
       id="path3565"
       d="m 222.40241,181.60327 c -2.06521,-1.55871 -5.196,-4.54999 -13.155,-12.56879 -7.69417,-7.75198 -9.3639,-9.26203 -10.77956,-9.74871 -0.89339,-0.30713 -1.44439,-0.14552 -2.4178,0.70914 -1.29553,1.1375 -3.84555,1.66255 -9.79721,2.01727 -3.77638,0.22508 -15.0075,0.61848 -17.65661,0.61848 l -1.58995,0 0.003,-10.38301 c 0.004,-13.93823 0.3514,-19.93871 1.33442,-23.04522 0.85024,-2.68687 0.75842,-2.79304 -2.62514,-3.03533 -3.25847,-0.23335 -5.03051,-0.94507 -8.16496,-3.27938 -3.55168,-2.64502 -12.19698,-11.08332 -13.04154,-12.72925 -0.87854,-1.71219 -0.54394,-3.19378 1.23854,-5.48411 0.47095,-0.60513 5.1628,-5.385132 10.42633,-10.622221 10.13777,-10.086839 10.63136,-10.664192 10.34425,-12.099754 -0.0695,-0.347554 -0.49383,-1.118589 -0.94292,-1.713411 -2.05879,-2.726849 -2.21488,-3.905607 -2.36262,-17.842357 l -0.11651,-10.990797 9.29769,0.0012 c 13.64717,0.0016 21.51175,0.458437 24.27081,1.409671 2.32581,0.801862 2.57695,0.591378 2.76248,-2.315264 0.15104,-2.366202 0.53051,-3.368618 2.41858,-6.388965 3.89979,-6.238496 11.42247,-14.557902 14.52805,-16.06671 0.86617,-0.420816 0.89852,-0.422043 1.57148,-0.05963 1.34084,0.722089 4.57864,3.743338 13.48344,12.581642 4.95852,4.921493 9.46039,9.249193 10.00416,9.617112 0.57828,0.391266 1.33514,0.707497 1.82336,0.761825 0.72639,0.08083 0.95297,-0.0021 1.74637,-0.639279 1.57163,-1.262171 3.87071,-1.777223 9.52198,-2.133163 3.78936,-0.23876 14.61482,-0.617766 17.64254,-0.617766 l 2.00921,0 -0.003,11.193393 c -0.004,14.193736 -0.28935,19.014972 -1.33163,22.497207 -0.71169,2.377738 -0.64021,2.449838 2.65163,2.674644 1.56423,0.106824 2.05978,0.238365 3.4869,0.925583 5.85763,2.820678 16.74347,12.139314 18.62526,15.94384 l 0.52745,1.06636 -0.53973,0.81558 c -1.14087,1.72396 -3.72113,4.44516 -12.47661,13.15803 -4.98277,4.95852 -9.35849,9.46039 -9.72382,10.00416 -0.39196,0.58339 -0.7001,1.33081 -0.75172,1.82335 -0.0774,0.73876 0.006,0.94574 0.72196,1.80095 1.74326,2.081 2.07856,4.56573 2.56248,18.98938 0.16637,4.95852 0.30257,9.32428 0.30267,9.70169 l 2e-4,0.68621 -11.90248,-0.11675 c -14.16288,-0.13893 -18.98002,-0.44624 -21.70832,-1.38491 -0.60304,-0.20747 -1.39234,-0.37723 -1.75399,-0.37723 -0.55538,0 -0.6921,0.0991 -0.87996,0.63802 -0.12233,0.35091 -0.22241,1.12871 -0.22241,1.72845 0,1.4401 -0.60625,3.18103 -1.92988,5.54193 -4.0766,7.27128 -12.57362,16.74541 -15.70961,17.51615 -0.41264,0.10141 -0.76869,-0.0597 -1.72206,-0.77927 l 0,0 z m 4.57209,-35.06598 c 7.36922,-1.27958 14.68347,-4.60192 20.4192,-9.27499 14.26791,-11.62446 19.13608,-31.54027 11.87453,-48.578938 -3.2962,-7.734261 -9.5733,-15.040832 -16.75055,-19.497706 -12.2245,-7.591076 -27.33283,-8.29775 -40.5637,-1.897318 -11.13128,5.384753 -18.99071,15.133686 -22.06653,27.371587 -1.02121,4.063126 -1.21379,5.765635 -1.21459,10.737555 -8.1e-4,5.06531 0.16931,6.46395 1.31322,10.79652 3.99633,15.13612 16.668,26.95879 32.30026,30.13616 4.38192,0.89066 10.2732,0.97373 14.68816,0.20713 z"
       style="opacity:1;fill:#6093ac;fill-opacity:1" />
    <path
       inkscape:connector-curvature="0"
       id="path3567"
       d="m 216.50969,135.87479 c -5.02909,-0.7769 -10.25601,-2.97126 -14.35688,-6.02729 -2.15508,-1.60599 -5.59102,-5.19759 -7.03129,-7.34981 -2.24163,-3.34971 -3.96532,-7.47116 -4.85851,-11.61704 -0.64742,-3.00506 -0.64129,-8.84621 0.0125,-11.864926 0.89884,-4.150465 2.32261,-7.54291 4.63027,-11.032688 1.72068,-2.602111 5.87937,-6.802288 8.4664,-8.550875 3.42164,-2.312698 7.40018,-4.004399 11.44664,-4.867187 2.45277,-0.522981 8.902,-0.516804 11.34534,0.01087 6.46372,1.395919 11.41327,4.048734 15.91968,8.532501 5.1586,5.132668 7.92918,10.948563 8.78829,18.448035 1.45029,12.6602 -5.34405,25.22085 -16.80675,31.07054 -4.6903,2.39357 -8.0019,3.25301 -12.9661,3.36503 -1.83856,0.0415 -3.90385,-0.0112 -4.58955,-0.11716 z m 9.09956,-17.76139 c 3.49461,-1.21042 5.72854,-3.11954 7.22643,-6.17568 1.23037,-2.51033 1.52281,-3.85559 1.50987,-6.94543 -0.01,-2.28334 -0.0822,-2.84938 -0.54563,-4.25451 -1.20542,-3.654529 -3.61645,-6.493984 -6.87145,-8.092486 -2.48166,-1.218719 -4.03427,-1.598242 -6.53832,-1.598242 -2.47567,0 -4.07101,0.382082 -6.38175,1.528421 -1.4034,0.696218 -2.0793,1.211797 -3.65262,2.786246 -2.12651,2.128047 -3.15503,3.844644 -3.76504,6.283891 -0.47963,1.91788 -0.30163,5.28572 0.38317,7.24961 1.5915,4.56417 5.78123,8.39081 10.5003,9.59034 2.34353,0.5957 5.79687,0.43772 8.13504,-0.37216 z"
       style="opacity:1;fill:#563e31;fill-opacity:1" />
  </g>
</svg>
