<?xml version="1.0" encoding="UTF-8" standalone="no"?>
<svg
   xmlns:dc="http://purl.org/dc/elements/1.1/"
   xmlns:cc="http://creativecommons.org/ns#"
   xmlns:rdf="http://www.w3.org/1999/02/22-rdf-syntax-ns#"
   xmlns:svg="http://www.w3.org/2000/svg"
   xmlns="http://www.w3.org/2000/svg"
   xmlns:sodipodi="http://sodipodi.sourceforge.net/DTD/sodipodi-0.dtd"
   xmlns:inkscape="http://www.inkscape.org/namespaces/inkscape"
   width="165"
   height="123.67987"
   viewBox="0 0 165 123.67987"
   id="svg4502"
   version="1.1"
   inkscape:version="0.91 r13725"
   sodipodi:docname="sass.svg">
  <metadata
     id="metadata4510">
    <rdf:RDF>
      <cc:Work
         rdf:about="">
        <dc:format>image/svg+xml</dc:format>
        <dc:type
           rdf:resource="http://purl.org/dc/dcmitype/StillImage" />
        <dc:title></dc:title>
      </cc:Work>
    </rdf:RDF>
  </metadata>
  <defs
     id="defs4508" />
  <sodipodi:namedview
     pagecolor="#ffffff"
     bordercolor="#666666"
     borderopacity="1"
     objecttolerance="10"
     gridtolerance="10"
     guidetolerance="10"
     inkscape:pageopacity="0"
     inkscape:pageshadow="2"
     inkscape:window-width="1920"
     inkscape:window-height="1017"
     id="namedview4506"
     showgrid="false"
     fit-margin-top="0"
     fit-margin-left="0"
     fit-margin-right="0"
     fit-margin-bottom="0"
     inkscape:zoom="1.7383042"
     inkscape:cx="145.19283"
     inkscape:cy="115.52891"
     inkscape:window-x="0"
     inkscape:window-y="26"
     inkscape:window-maximized="1"
     inkscape:current-layer="svg4502" />
  <path
     d="m 142.03991,71.020493 c -5.76905,0.0322 -10.76461,1.41809 -14.95443,3.48077 -1.54701,-3.06179 -3.09402,-5.73683 -3.35185,-7.73505 -0.29007,-2.32052 -0.64459,-3.73861 -0.29007,-6.51034 0.35453,-2.77172 1.966,-6.70371 1.966,-7.026 -0.0322,-0.29006 -0.35453,-1.70816 -3.67415,-1.74039 -3.31963,-0.0322 -6.18804,0.64459 -6.51034,1.51478 -0.32229,0.8702 -0.96688,2.86842 -1.38586,4.9311 -0.58013,3.02956 -6.63925,13.76194 -10.08779,19.40208 -1.12803,-2.19159 -2.09491,-4.12536 -2.28829,-5.67237 -0.29006,-2.32051 -0.64459,-3.7386 -0.29006,-6.51033 0.35452,-2.77173 1.96599,-6.70371 1.96599,-7.026 -0.0322,-0.29007 -0.35453,-1.70816 -3.674155,-1.74039 -3.319626,-0.0322 -6.18804,0.64459 -6.510334,1.51478 -0.322294,0.87019 -0.676817,2.93287 -1.385863,4.93109 -0.676817,1.99823 -8.734161,19.91776 -10.829071,24.59102 -1.063569,2.38497 -1.998221,4.28651 -2.675038,5.57568 -0.676817,1.28918 -0.03223,0.0967 -0.09669,0.22561 -0.580129,1.09579 -0.902423,1.70815 -0.902423,1.70815 l 0,0.0322 c -0.451211,0.80574 -0.934651,1.57924 -1.160257,1.57924 -0.161147,0 -0.483441,-2.15937 0.06446,-5.12447 1.192487,-6.22027 4.09313,-15.92131 4.060901,-16.27583 0,-0.16115 0.547899,-1.86931 -1.869304,-2.7395 -2.352744,-0.87019 -3.190708,0.58013 -3.384084,0.58013 -0.193376,0 -0.354523,0.51567 -0.354523,0.51567 0,0 2.610579,-10.92576 -4.995554,-10.92576 -4.769947,0 -11.34474,5.18893 -14.599907,9.92665 -2.06268,1.12803 -6.445875,3.513 -11.086906,6.05912 -1.772615,0.96688 -3.60969,1.99822 -5.350076,2.93287 l -0.354523,-0.38675 c -9.217602,-9.82996 -26.266942,-16.7915 -25.557895,-30.00555 0.257835,-4.80218 1.933762,-17.46832 32.745046,-32.8095 25.235601,-12.5694601 45.44342,-9.1209201 48.956422,-1.45033 4.995554,10.95799 -10.796841,31.32696 -37.031553,34.25983 -9.991107,1.12803 -15.244495,-2.7395 -16.565899,-4.18982 -1.385864,-1.51478 -1.57924,-1.57924 -2.09491,-1.28917 -0.837964,0.45121 -0.322294,1.80484 0,2.61058 0.773505,2.03045 3.996443,5.64014 9.475437,7.44498 4.802177,1.57924 16.53367,2.44944 30.714595,-3.02956 15.889083,-6.15581 28.297394,-23.23738 24.655474,-37.51499 C 99.626051,0.59927286 75.518477,-4.1706771 52.732308,3.9188929 39.163741,8.7533029 24.467145,16.294973 13.89591,26.189393 1.3264531,37.920893 -0.67176827,48.169833 0.16619551,52.424113 3.0990688,67.604143 24.015934,77.498563 32.395572,84.814633 c -0.418982,0.2256 -0.805734,0.45121 -1.160258,0.64459 -4.189818,2.06268 -20.14336,10.41008 -24.1398026,19.240927 -4.5121127,9.99111 0.7090463,17.17826 4.1898196,18.14514 10.764611,2.99733 21.787058,-2.38497 27.749493,-11.24805 5.930205,-8.86308 5.221158,-20.368967 2.481662,-25.622347 l -0.09669,-0.19338 3.287397,-1.93376 c 2.127139,-1.25695 4.222048,-2.41721 6.059122,-3.41632 -1.03134,2.80396 -1.772615,6.12358 -2.159368,10.95799 -0.451211,5.67237 1.869304,13.020667 4.931095,15.921307 1.353634,1.25695 2.965102,1.28918 3.964213,1.28918 3.545232,0 5.1567,-2.93287 6.929316,-6.44588 2.191598,-4.286497 4.12536,-9.249827 4.12536,-9.249827 0,0 -2.417203,13.439647 4.189819,13.439647 2.417203,0 4.834407,-3.12625 5.930205,-4.73772 l 0,0.0322 c 0,0 0.06446,-0.0967 0.193377,-0.32229 0.257835,-0.38675 0.386752,-0.61236 0.386752,-0.61236 l 0,-0.0645 c 0.966881,-1.675927 3.12625,-5.511217 6.349187,-11.860407 4.15759,-8.18626 8.154032,-18.4352 8.154032,-18.4352 0,0 0.386753,2.51389 1.57924,6.63925 0.709046,2.44943 2.256056,5.12447 3.448543,7.73505 -0.966881,1.35363 -1.54701,2.12714 -1.54701,2.12714 l 0.03223,0.0322 c -0.773505,1.03134 -1.643698,2.12714 -2.54612,3.22294 -3.287397,3.93198 -7.219381,8.41186 -7.735051,9.70104 -0.612358,1.514777 -0.48344,2.642807 0.709047,3.545227 0.870193,0.64459 2.417203,0.7735 4.060901,0.64459 2.965103,-0.19338 5.027783,-0.93465 6.059123,-1.38587 1.611469,-0.58012 3.448544,-1.45032 5.221164,-2.739487 3.22294,-2.38498 5.18893,-5.76906 4.99555,-10.28117 -0.0967,-2.48167 -0.90242,-4.9311 -1.90153,-7.25161 0.29006,-0.41899 0.58013,-0.83797 0.87019,-1.28918 5.09224,-7.44498 9.02423,-15.63125 9.02423,-15.63125 0,0 0.38675,2.5139 1.57924,6.63926 0.61236,2.09491 1.83707,4.38319 2.93287,6.63925 -4.76995,3.89975 -7.76728,8.41186 -8.79862,11.37697 -1.90153,5.47899 -0.41898,7.96065 2.38498,8.54078 1.25694,0.25784 3.06179,-0.32229 4.41542,-0.90242 1.67593,-0.5479 3.70638,-1.48255 5.57568,-2.86842 3.22294,-2.38497 6.31696,-5.70459 6.15581,-10.18448 -0.0967,-2.06268 -0.64458,-4.09313 -1.38586,-6.02689 4.0609,-1.67593 9.31429,-2.64281 15.98577,-1.83708 14.34207,1.67593 17.17826,10.6357 16.63036,14.37431 -0.5479,3.7386 -3.54523,5.80128 -4.54434,6.44587 -0.99911,0.61236 -1.32141,0.83796 -1.22472,1.28918 0.12892,0.67681 0.58013,0.64458 1.45032,0.51567 1.19249,-0.19338 7.54168,-3.06179 7.79951,-9.95888 0.38675,-8.86308 -8.02511,-18.53189 -22.94732,-18.4352 z M 31.428692,108.30987 c -4.737719,5.18893 -11.409199,7.15493 -14.245385,5.479 -3.06179,-1.77262 -1.869303,-9.41098 3.964214,-14.922197 3.545231,-3.35186 8.154032,-6.44588 11.183593,-8.34741 0.676817,-0.41898 1.708157,-1.03134 2.932874,-1.77262 0.193376,-0.12892 0.322293,-0.19337 0.322293,-0.19337 0.225606,-0.12892 0.483441,-0.29007 0.741276,-0.45122 2.159368,7.86397 0.09669,14.761057 -4.898865,20.207817 z M 66.075271,84.750203 c -1.643698,4.02867 -5.124471,14.3743 -7.21938,13.79417 -1.804845,-0.48344 -2.900644,-8.31518 -0.354523,-16.05023 1.289175,-3.89975 4.028672,-8.54078 5.640141,-10.34563 2.610579,-2.90064 5.446764,-3.86752 6.15581,-2.67503 0.837964,1.54701 -3.190708,12.76283 -4.222048,15.27672 z m 28.587457,13.66526 c -0.709046,0.35452 -1.353634,0.61235 -1.643698,0.41898 -0.225606,-0.12892 0.290064,-0.61236 0.290064,-0.61236 0,0 3.577461,-3.8353 4.995553,-5.60791 0.805735,-1.03134 1.772613,-2.22383 2.803963,-3.57746 l 0,0.38675 c 0,4.64103 -4.447661,7.73505 -6.445882,8.992 z m 22.044902,-5.02779 c -0.51567,-0.38675 -0.45122,-1.57924 1.28917,-5.31784 0.67682,-1.48256 2.22383,-3.96422 4.89887,-6.31696 0.32229,0.96688 0.51567,1.90153 0.48344,2.77172 -0.0322,5.80129 -4.15759,7.96066 -6.67148,8.86308 z"
     id="path4504"
     inkscape:connector-curvature="0"
     style="fill:#cf649a" />
</svg>
